<?xml version="1.0" encoding="UTF-8" standalone="no"?>
<svg
   xmlns:dc="http://purl.org/dc/elements/1.1/"
   xmlns:cc="http://creativecommons.org/ns#"
   xmlns:rdf="http://www.w3.org/1999/02/22-rdf-syntax-ns#"
   xmlns:svg="http://www.w3.org/2000/svg"
   xmlns="http://www.w3.org/2000/svg"
   viewBox="0 0 200 200"
   height="200"
   width="200"
   xml:space="preserve"
   id="svg3718"
   version="1.1"><metadata
     id="metadata3724"><rdf:RDF><cc:Work
         rdf:about=""><dc:format>image/svg+xml</dc:format><dc:type
           rdf:resource="http://purl.org/dc/dcmitype/StillImage" /><dc:title></dc:title></cc:Work></rdf:RDF></metadata><defs
     id="defs3722"><clipPath
       id="clipPath3766"
       clipPathUnits="userSpaceOnUse"><path
         id="path3764"
         d="M 0,739.568 H 576 V 0 H 0 Z" /></clipPath></defs><g
     transform="matrix(1.3333333,0,0,-1.3333333,0,199.99997)"
     id="g3726"><circle
       r="72"
       transform="matrix(0.99998615,0.00526309,0.00526309,-0.99998615,0,0)"
       cy="-74.60421"
       cx="75.393692"
       id="path866"
       style="opacity:1;fill:#ffffff;fill-opacity:1;fill-rule:nonzero;stroke-width:0.76595747" /><g
       transform="matrix(0.9307339,0,0,1,5.2696362,4.5)"
       id="g3760"><g
         clip-path="url(#clipPath3766)"
         id="g3762"><g
           transform="matrix(0.39987756,0,0,0.38582808,59.437145,123.51836)"
           id="g3768"><path
             id="path3770"
             style="fill:#231f20;fill-opacity:1;fill-rule:evenodd;stroke:none"
             d="m 0,0 v -148.338 c 6.729,1.058 13.144,3.048 19.136,5.801 V 10.721 C 12.121,8.246 5.667,4.592 0,0" /></g><g
           transform="matrix(0.39987756,0,0,0.38582808,54.834825,122.75481)"
           id="g3772"><path
             id="path3774"
             style="fill:#231f20;fill-opacity:1;fill-rule:evenodd;stroke:none"
             d="m 0,0 c -2.702,0 -5.367,-0.156 -7.994,-0.439 v -147.538 c 0.158,0.368 0.324,0.731 0.473,1.102 2.475,-0.251 4.982,-0.38 7.521,-0.38 2.123,0 4.218,0.113 6.295,0.29 V -0.284 C 4.22,-0.102 2.123,0 0,0" /></g><g
           transform="matrix(0.39987756,0,0,0.38582808,41.904025,119.87109)"
           id="g3776"><path
             id="path3778"
             style="fill:#231f20;fill-opacity:1;fill-rule:evenodd;stroke:none"
             d="m 0,0 v -202.574 c 1.595,0.678 3.122,1.484 4.575,2.397 V 2.042 C 3.023,1.409 1.496,0.733 0,0" /></g><g
           transform="matrix(0.39987756,0,0,0.38582808,69.168925,128.26566)"
           id="g3780"><path
             id="path3782"
             style="fill:#231f20;fill-opacity:1;fill-rule:evenodd;stroke:none"
             d="m 0,0 v -152.219 c 1.547,0.865 3.048,1.8 4.524,2.771 V 1.008 C 2.996,0.727 1.489,0.387 0,0" /></g><g
           transform="matrix(0.39987756,0,0,0.38582808,73.031015,128.93785)"
           id="g3784"><path
             id="path3786"
             style="fill:#231f20;fill-opacity:1;fill-rule:evenodd;stroke:none"
             d="m 0,0 v -147.499 c 1.582,1.247 3.111,2.557 4.584,3.926 V 0.294 C 3.042,0.247 1.513,0.154 0,0" /></g><g
           transform="matrix(0.39987756,0,0,0.38582808,11.111295,73.696612)"
           id="g3788"><path
             id="path3790"
             style="fill:#231f20;fill-opacity:1;fill-rule:evenodd;stroke:none"
             d="M 0,0 C 0,-6.882 1.32,-13.454 3.714,-19.482 V 19.462 C 1.323,13.439 0,6.876 0,0" /></g><g
           transform="matrix(0.39987756,0,0,0.38582808,14.672125,85.019972)"
           id="g3792"><path
             id="path3794"
             style="fill:#231f20;fill-opacity:1;fill-rule:evenodd;stroke:none"
             d="m 0,0 v -58.703 c 1.367,-2.04 2.875,-3.978 4.505,-5.803 V 5.795 C 2.876,3.971 1.366,2.038 0,0" /></g><g
           transform="matrix(0.39987756,0,0,0.38582808,32.175965,112.48348)"
           id="g3796"><path
             id="path3798"
             style="fill:#231f20;fill-opacity:1;fill-rule:evenodd;stroke:none"
             d="m 0,0 v -183.907 c 2.947,-1.116 6.098,-1.815 9.381,-2.031 V 9.419 C 5.98,6.565 2.836,3.416 0,0" /></g><g
           transform="matrix(0.39987756,0,0,0.38582808,49.579995,122.29459)"
           id="g3800"><path
             id="path3802"
             style="fill:#231f20;fill-opacity:1;fill-rule:evenodd;stroke:none"
             d="m 0,0 c -3.24,-0.584 -6.407,-1.372 -9.484,-2.365 v -200.104 c 4.714,4.476 8.097,10.339 9.484,16.942 v 13.468 c -0.801,3.819 -2.263,7.394 -4.271,10.596 1.538,1.692 2.963,3.487 4.271,5.37 z" /></g><g
           transform="matrix(0.39987756,0,0,0.38582808,76.944855,129.03998)"
           id="g3804"><path
             id="path3806"
             style="fill:#231f20;fill-opacity:1;fill-rule:evenodd;stroke:none"
             d="m 0,0 v -143.018 c 1.464,-1.406 2.992,-2.743 4.568,-4.025 V -0.402 C 3.059,-0.221 1.539,-0.075 0,0" /></g><g
           transform="matrix(0.39987756,0,0,0.38582808,25.393245,94.347672)"
           id="g3808"><path
             id="path3810"
             style="fill:#231f20;fill-opacity:1;fill-rule:evenodd;stroke:none"
             d="M 0,0 C 0,-1.182 0.033,-2.353 0.088,-3.52 -2.48,-4.394 -4.96,-5.461 -7.334,-6.703 v -93.651 c 1.137,-0.595 2.298,-1.15 3.482,-1.662 -0.187,-1.416 -0.295,-2.86 -0.295,-4.33 0,-11.925 6.392,-22.353 15.934,-28.056 V 39.936 C 4.34,28.43 0,14.726 0,0" /></g><g
           transform="matrix(0.39987756,0,0,0.38582808,18.529945,89.197562)"
           id="g3812"><path
             id="path3814"
             style="fill:#231f20;fill-opacity:1;fill-rule:evenodd;stroke:none"
             d="m 0,0 v -80.357 c 1.47,-1.254 3.009,-2.43 4.611,-3.519 V 3.522 C 3.008,2.433 1.47,1.254 0,0" /></g><g
           transform="matrix(0.39987756,0,0,0.38582808,93.226795,122.47523)"
           id="g3816"><path
             id="path3818"
             style="fill:#231f20;fill-opacity:1;fill-rule:evenodd;stroke:none"
             d="m 0,0 v -145.8 c 3.099,-0.432 6.257,-0.677 9.467,-0.71 V 0.71 C 6.259,0.675 3.101,0.431 0,0" /></g><g
           transform="matrix(0.39987756,0,0,0.38582808,121.68488,110.29923)"
           id="g3820"><path
             id="path3822"
             style="fill:#231f20;fill-opacity:1;fill-rule:evenodd;stroke:none"
             d="m 0,0 v -178.449 c 1.605,0.575 3.154,1.269 4.633,2.078 V -7.846 C 3.243,-5.131 1.704,-2.506 0,0" /></g><g
           transform="matrix(0.39987756,0,0,0.38582808,126.72785,92.989712)"
           id="g3824"><path
             id="path3826"
             style="fill:#231f20;fill-opacity:1;fill-rule:evenodd;stroke:none"
             d="m 0,0 c 0.055,1.167 0.09,2.338 0.09,3.52 0,7.128 -1.033,14.011 -2.923,20.53 v -152.072 c 7.251,5.991 11.872,15.053 11.872,25.196 0,2.228 -0.225,4.403 -0.649,6.506 1.047,0.576 2.07,1.186 3.072,1.829 V -5.535 C 7.908,-3.255 4.067,-1.384 0,0" /></g><g
           transform="matrix(0.39987756,0,0,0.38582808,139.21115,65.384952)"
           id="g3828"><path
             id="path3830"
             style="fill:#231f20;fill-opacity:1;fill-rule:evenodd;stroke:none"
             d="M 0,0 C 2.943,6.579 4.586,13.868 4.586,21.542 4.586,29.214 2.941,36.497 0,43.073 Z" /></g><g
           transform="matrix(0.39987756,0,0,0.38582808,113.92669,117.80498)"
           id="g3832"><path
             id="path3834"
             style="fill:#231f20;fill-opacity:1;fill-rule:evenodd;stroke:none"
             d="m 0,0 v -198.719 c 2.677,-0.709 5.486,-1.092 8.387,-1.092 1.992,0 3.939,0.188 5.834,0.529 V -12.73 C 10.053,-7.901 5.279,-3.612 0,0" /></g><g
           transform="matrix(0.39987756,0,0,0.38582808,133.11106,89.611092)"
           id="g3836"><path
             id="path3838"
             style="fill:#231f20;fill-opacity:1;fill-rule:evenodd;stroke:none"
             d="m 0,0 v -82.498 c 3.827,3.063 7.218,6.647 10.066,10.645 v 61.201 C 7.217,-6.653 3.829,-3.063 0,0" /></g><g
           transform="matrix(0.39987756,0,0,0.38582808,80.818075,128.57051)"
           id="g3840"><path
             id="path3842"
             style="fill:#231f20;fill-opacity:1;fill-rule:evenodd;stroke:none"
             d="m 0,0 v -149.641 c 1.492,-1.013 3.022,-1.974 4.59,-2.878 V -1.111 C 3.081,-0.687 1.552,-0.314 0,0" /></g><g
           transform="matrix(0.39987756,0,0,0.38582808,87.609755,126.24443)"
           id="g3844"><path
             id="path3846"
             style="fill:#231f20;fill-opacity:1;fill-rule:evenodd;stroke:none"
             d="m 0,0 v -152.167 c 1.502,-0.526 3.022,-1.01 4.566,-1.439 V -2.62 C 3.086,-1.684 1.559,-0.816 0,0" /></g><g
           transform="matrix(0.39987756,0,0,0.38582808,90.538535,124.51912)"
           id="g3848"><path
             id="path3850"
             style="fill:#231f20;fill-opacity:1;fill-rule:evenodd;stroke:none"
             d="m 0,0 v -149.836 c 1.513,-0.357 3.04,-0.674 4.587,-0.936 V -3.557 C 3.113,-2.304 1.583,-1.118 0,0" /></g><g
           transform="matrix(0.39987756,0,0,0.38582808,103.91804,122.03007)"
           id="g3852"><path
             id="path3854"
             style="fill:#231f20;fill-opacity:1;fill-rule:evenodd;stroke:none"
             d="m 0,0 v -159.725 c 1.256,-1.457 2.59,-2.846 3.996,-4.16 -2.078,-4.297 -3.246,-9.117 -3.246,-14.209 0,-8.578 3.311,-16.379 8.717,-22.207 V -2.844 C 6.404,-1.689 3.242,-0.742 0,0" /></g><g
           transform="matrix(0.39987756,0,0,0.38582808,99.072285,122.70056)"
           id="g3856"><path
             id="path3858"
             style="fill:#231f20;fill-opacity:1;fill-rule:evenodd;stroke:none"
             d="m 0,0 v -146.973 c 1.052,0.062 2.103,0.133 3.143,0.239 1.629,-4.045 3.759,-7.83 6.288,-11.305 V -1.171 C 6.35,-0.586 3.204,-0.188 0,0" /></g><g
           transform="matrix(0.39987756,0,0,0.38582808,110.21535,119.88976)"
           id="g3860"><path
             id="path3862"
             style="fill:#231f20;fill-opacity:1;fill-rule:evenodd;stroke:none"
             d="m 0,0 v -200.017 c 1.448,-0.934 2.974,-1.757 4.566,-2.455 V -2.446 C 3.074,-1.583 1.557,-0.759 0,0" /></g><g
           transform="matrix(0.39987756,0,0,0.38582808,85.033985,35.251162)"
           id="g3864"><path
             id="path3866"
             style="fill:#ed0080;fill-opacity:1;fill-rule:nonzero;stroke:none"
             d="m 0,0 c -3.091,3.326 -9.882,5.811 -13.891,5.811 -2.869,0 -5.529,-1.311 -7.294,-3.596 l -1.562,-2.024 -1.562,2.024 c -1.765,2.285 -4.425,3.596 -7.295,3.596 -4.008,0 -10.799,-2.485 -13.89,-5.811 -1.062,-1.145 -1.562,-2.244 -1.487,-3.271 0.935,-12.667 14.903,-17.385 23.49,-17.385 h 1.488 c 8.587,0 22.555,4.718 23.49,17.385 C 1.562,-2.244 1.062,-1.145 0,0" /></g></g></g></g></svg>